# xmcd
#
# Track frame offsets:
#       150
#       11261
#       26352
#       36760
#       50366
#       65873
#       85568
#       97338
#       109112
#       123193
#       143272
#       156054
#       170679
#       184797
#       199005
#       210389
#       220118
#       241467
#       263767
#       281409
#
# Disc length: 3932 seconds
#
# Revision: 0
# Processed by: cddbd v1.5.1PL0 Copyright (c) Steve Scherf et al.
# Submitted via: CD-DA_X-Tractor v0.21
#
DISCID=0c0f5a14
DTITLE=Various Artist - Totally Blues
DYEAR=2001
DGENRE=Blues
TTITLE0=The Little Red Rooster
TTITLE1=Rock Me
TTITLE2=Baby Please Don't Go
TTITLE3=Dust My Broom
TTITLE4=Key To the Highway
TTITLE5=Five Long Years
TTITLE6=Evil Hearted Woman
TTITLE7=See See Rider
TTITLE8=That's All Right
TTITLE9=Good Morning Little School Girl
TTITLE10=I Want To Go Home On The Morning Train
TTITLE11=Hoochie Coochie Man
TTITLE12=Rollin' and Tumblin'
TTITLE13=Got My Mojo Working
TTITLE14=You Shook Me
TTITLE15=I'm Tore Down
TTITLE16=White Line Blues
TTITLE17=Bad to the Bone
TTITLE18=Honey Hush
TTITLE19=Baby Jane
EXTD=
EXTT0=
EXTT1=
EXTT2=
EXTT3=
EXTT4=
EXTT5=
EXTT6=
EXTT7=
EXTT8=
EXTT9=
EXTT10=
EXTT11=
EXTT12=
EXTT13=
EXTT14=
EXTT15=
EXTT16=
EXTT17=
EXTT18=
EXTT19=
PLAYORDER=
